0
SECTION
2
HEADER
9
$INSUNITS
70
1
9
$ACADVER
1
AC1014
9
$HANDSEED
5
FFFF
0
ENDSEC
0
SECTION
2
TABLES
0
TABLE
2
VPORT
5
8
100
AcDbSymbolTable
0
ENDTAB
0
TABLE
2
LTYPE
5
5
100
AcDbSymbolTable
0
LTYPE
5
14
100
AcDbSymbolTableRecord
100
AcDbLinetypeTableRecord
2
BYBLOCK
70
0
0
LTYPE
5
15
100
AcDbSymbolTableRecord
100
AcDbLinetypeTableRecord
2
BYLAYER
70
0
0
ENDTAB
0
TABLE
2
LAYER
5
2
100
AcDbSymbolTable
70
2
0
LAYER
5
50
100
AcDbSymbolTableRecord
100
AcDbLayerTableRecord
2
0
70
0
6
CONTINUOUS
0
ENDTAB
0
TABLE
2
STYLE
5
3
100
AcDbSymbolTable
70
1
0
STYLE
5
11
100
AcDbSymbolTableRecord
100
AcDbTextStyleTableRecord
2
STANDARD
70
0
0
ENDTAB
0
TABLE
2
VIEW
5
6
100
AcDbSymbolTable
70
0
0
ENDTAB
0
TABLE
2
UCS
5
7
100
AcDbSymbolTable
70
0
0
ENDTAB
0
TABLE
2
APPID
5
9
100
AcDbSymbolTable
70
2
0
APPID
5
12
100
AcDbSymbolTableRecord
100
AcDbRegAppTableRecord
2
ACAD
70
0
0
ENDTAB
0
TABLE
2
DIMSTYLE
5
A
100
AcDbSymbolTable
70
1
0
ENDTAB
0
TABLE
2
BLOCK_RECORD
5
1
100
AcDbSymbolTable
70
1
0
BLOCK_RECORD
5
1F
100
AcDbSymbolTableRecord
100
AcDbBlockTableRecord
2
*MODEL_SPACE
0
BLOCK_RECORD
5
1B
100
AcDbSymbolTableRecord
100
AcDbBlockTableRecord
2
*PAPER_SPACE
0
ENDTAB
0
ENDSEC
0
SECTION
2
BLOCKS
0
BLOCK
5
20
100
AcDbEntity
100
AcDbBlockBegin
2
*MODEL_SPACE
0
ENDBLK
5
21
100
AcDbEntity
100
AcDbBlockEnd
0
BLOCK
5
1C
100
AcDbEntity
100
AcDbBlockBegin
2
*PAPER_SPACE
0
ENDBLK
5
1D
100
AcDbEntity
100
AcDbBlockEnd
0
ENDSEC
0
SECTION
2
ENTITIES
0
LWPOLYLINE
5
100
100
AcDbEntity
8
0
100
AcDbPolyline
90
4
70
1
43
0.0
10
-2.7931496062992172
20
-2.7801108709064026
10
-3.2855905511811097
20
-2.7801108709064026
10
-3.2855905511811074
20
2.8588811805097913
10
-2.7931496062992158
20
2.8588811805097909
0
LWPOLYLINE
5
101
100
AcDbEntity
8
0
100
AcDbPolyline
90
4
70
1
43
0.0
10
2.7931496062811099
20
2.8588811805097891
10
3.2855905511811119
20
2.8588811805097887
10
3.2855905511811097
20
-2.7801108709064062
10
2.7931496062811059
20
-2.7801108709064057
0
LWPOLYLINE
5
102
100
AcDbEntity
8
0
100
AcDbPolyline
90
8
70
1
43
0.0
10
5.9938582677165515
20
8.1831706524430459
42
0.99999999999999989
10
-6.2261417322834749
20
8.1831706524430565
10
-5.7737007874015882
20
8.1831706524430601
10
-5.7737007874015873
20
1.1731706524430305
10
-6.2261335489719452
20
1.1731706524430319
42
0.99918200367928345
10
5.9938582677165515
20
1.1831706524430374
10
5.5514173228346611
20
1.183170652443035
10
5.5514173228346602
20
8.1831706524430512
0
LWPOLYLINE
5
103
100
AcDbEntity
8
0
100
AcDbPolyline
90
4
70
1
43
0.0
10
6.3838582677165547
20
8.1831706524430459
10
6.3838582677165485
20
1.1831706524430192
42
-0.99999999999999989
10
-6.6161417322834764
20
1.183170652443029
10
-6.6161417322834764
20
8.1831706524430743
42
-0.99999999999999989
0
LWPOLYLINE
5
104
100
AcDbEntity
8
0
100
AcDbPolyline
90
4
70
1
43
0.0
10
-2.6161417322834652
20
11.683170652443064
10
2.3838582677165441
20
11.683170652443064
10
2.3838582677165441
20
9.6831706524430565
10
-2.6161417322834652
20
9.6831706524430565
0
LWPOLYLINE
5
105
100
AcDbEntity
8
0
100
AcDbPolyline
90
4
70
1
43
0.0
10
2.3838582677165436
20
-2.3168293475569732
10
-2.6161417322834657
20
-2.3168293475569737
10
-2.6161417322834661
20
-0.31682934755696657
10
2.3838582677165427
20
-0.31682934755696673
0
LWPOLYLINE
5
106
100
AcDbEntity
8
0
100
AcDbPolyline
90
4
70
1
43
0.0
10
2.3838582677165441
20
11.683170652443064
10
-2.6161417322834652
20
11.683170652443064
10
-2.6161417322834648
20
9.6831706524430565
10
2.3838582677165441
20
9.6831706524430583
0
LWPOLYLINE
5
107
100
AcDbEntity
8
0
100
AcDbPolyline
90
4
70
1
43
0.0
10
-2.6161417322834661
20
-2.3168293475569763
10
2.3838582677165427
20
-2.3168293475569759
10
2.3838582677165427
20
-0.31682934755696868
10
-2.6161417322834661
20
-0.31682934755696934
0
ENDSEC
0
SECTION
2
OBJECTS
0
DICTIONARY
5
C
100
AcDbDictionary
3
ACAD_GROUP
350
D
3
ACAD_MLINESTYLE
350
17
0
DICTIONARY
5
D
100
AcDbDictionary
0
DICTIONARY
5
1A
330
C
100
AcDbDictionary
0
DICTIONARY
5
17
100
AcDbDictionary
0
ENDSEC
0
EOF
