0
SECTION
2
HEADER
9
$INSUNITS
70
1
9
$ACADVER
1
AC1014
9
$HANDSEED
5
FFFF
0
ENDSEC
0
SECTION
2
TABLES
0
TABLE
2
VPORT
5
8
100
AcDbSymbolTable
0
ENDTAB
0
TABLE
2
LTYPE
5
5
100
AcDbSymbolTable
0
LTYPE
5
14
100
AcDbSymbolTableRecord
100
AcDbLinetypeTableRecord
2
BYBLOCK
70
0
0
LTYPE
5
15
100
AcDbSymbolTableRecord
100
AcDbLinetypeTableRecord
2
BYLAYER
70
0
0
ENDTAB
0
TABLE
2
LAYER
5
2
100
AcDbSymbolTable
70
2
0
LAYER
5
50
100
AcDbSymbolTableRecord
100
AcDbLayerTableRecord
2
0
70
0
6
CONTINUOUS
0
ENDTAB
0
TABLE
2
STYLE
5
3
100
AcDbSymbolTable
70
1
0
STYLE
5
11
100
AcDbSymbolTableRecord
100
AcDbTextStyleTableRecord
2
STANDARD
70
0
0
ENDTAB
0
TABLE
2
VIEW
5
6
100
AcDbSymbolTable
70
0
0
ENDTAB
0
TABLE
2
UCS
5
7
100
AcDbSymbolTable
70
0
0
ENDTAB
0
TABLE
2
APPID
5
9
100
AcDbSymbolTable
70
2
0
APPID
5
12
100
AcDbSymbolTableRecord
100
AcDbRegAppTableRecord
2
ACAD
70
0
0
ENDTAB
0
TABLE
2
DIMSTYLE
5
A
100
AcDbSymbolTable
70
1
0
ENDTAB
0
TABLE
2
BLOCK_RECORD
5
1
100
AcDbSymbolTable
70
1
0
BLOCK_RECORD
5
1F
100
AcDbSymbolTableRecord
100
AcDbBlockTableRecord
2
*MODEL_SPACE
0
BLOCK_RECORD
5
1B
100
AcDbSymbolTableRecord
100
AcDbBlockTableRecord
2
*PAPER_SPACE
0
ENDTAB
0
ENDSEC
0
SECTION
2
BLOCKS
0
BLOCK
5
20
100
AcDbEntity
100
AcDbBlockBegin
2
*MODEL_SPACE
0
ENDBLK
5
21
100
AcDbEntity
100
AcDbBlockEnd
0
BLOCK
5
1C
100
AcDbEntity
100
AcDbBlockBegin
2
*PAPER_SPACE
0
ENDBLK
5
1D
100
AcDbEntity
100
AcDbBlockEnd
0
ENDSEC
0
SECTION
2
ENTITIES
0
LWPOLYLINE
5
100
100
AcDbEntity
8
0
100
AcDbPolyline
90
32
70
1
43
0.0
10
-3.2055508762671887
20
12.595304163434292
42
3.1715948023632183
10
2.9732674117002693
20
12.595304163434285
42
0.99999999999999989
10
2.8377769149244361
20
12.401803680531371
42
-3.1715948023632157
10
-3.0700603794913488
20
12.40180368053138
42
-0.99999999999999989
10
-2.5602773853722622
20
11.673758113609171
42
0.38358078568424275
10
-3.8451275444612993
20
6.1209716495994462
42
0.99999999999999989
10
-2.6539261358959596
20
6.7797283412733913
42
-0.38358078568424281
10
-1.779513397701503
20
10.558711580881143
42
-0.99999999999999989
10
-1.2697304035824057
20
9.8306660139589326
42
0.92007140042628643
10
0.74860466372714185
20
6.3673453691758963
42
-0.99999999999999989
10
1.1307452116373908
20
5.5649130354222951
42
-0.25758087872369384
10
-1.6662836378173747
20
5.7322402020395327
42
0.9999999925494194
10
-2.3938991195409751
20
4.5818068552762394
42
0.97681499795105842
10
2.3279939208053442
20
11.673758113609168
42
0.99999999999999989
10
1.5472299331342152
20
10.558711580880621
42
-0.34968735016748276
10
2.5708609051555595
20
7.0922917286442297
42
-0.99999999999999989
10
1.7473598932070626
20
7.4266196095121941
42
0.34968735016748276
10
1.0374469390154861
20
9.8306660139589308
42
0.99999999999999989
10
0.90195644223928717
20
9.6371655310555013
42
-0.3496873501674827
10
1.5284891923560702
20
7.5154775180488924
42
0.9999999925494194
10
2.7897316060071349
20
7.0034338201072925
42
0.34968735016748298
10
1.6827204299104175
20
10.75221206378405
42
-0.99999999999999989
10
2.1925034240302463
20
11.480257630707307
42
-0.97681499795105731
10
-2.2676317908266359
20
4.7814482169685339
42
-0.99999999999999989
10
-1.7925509665323993
20
5.5325988403461484
42
0.25758087872367158
10
1.2323108057653247
20
5.3516419832631819
42
0.99999999999999989
10
0.64703906959865609
20
6.5806164213361669
42
-0.92007140042624691
10
-1.1342399068065716
20
9.63716553105602
42
0.99999999999999989
10
-1.9150038944773371
20
10.752212063784048
42
0.38358078568423354
10
-2.8606422154741571
20
6.6654104772082174
42
-0.99999999999999989
10
-3.6384114648836179
20
6.2352895136645818
42
-0.38358078568423398
10
-2.4247868885964219
20
11.480257630706259
42
0.99999999999999989
0
CIRCLE
5
101
100
AcDbEntity
8
0
100
AcDbCircle
10
-0.116141732283464
20
8.183170652443053
30
-3.496765431890258e-16
40
0.56250000000000189
210
-1.0059353856034667e-16
220
2.7755575615628852e-17
230
1
0
LWPOLYLINE
5
102
100
AcDbEntity
8
0
100
AcDbPolyline
90
4
70
1
43
0.0
10
-1.8582677165354402
20
-0.25031298167304311
10
-1.8582677165354398
20
0.12468701832695819
10
1.6259842519685002
20
0.12468701832695507
10
1.6259842519685006
20
-0.25031298167304755
0
LWPOLYLINE
5
103
100
AcDbEntity
8
0
100
AcDbPolyline
90
4
70
1
43
0.0
10
-6.6161417322834764
20
1.1831706524430341
42
0.99999999999999989
10
6.3838582677165485
20
1.1831706524430374
10
6.3838582677165512
20
8.1831706524430494
42
0.99999999999999989
10
-6.6161417322834755
20
8.1831706524430583
0
ARC
5
104
100
AcDbEntity
8
0
100
AcDbCircle
10
-0.116141732283464
20
8.183170652443053
30
-3.496765431890258e-16
40
5.2681102362204877
210
-3.39896789644311e-17
220
4.8542292262856852e-17
230
1
100
AcDbArc
50
-235.00000000000011
51
54.999999999999943
0
ARC
5
105
100
AcDbEntity
8
0
100
AcDbCircle
10
-2.8151688824318053
20
12.037780897070276
30
-6.9935308637805131e-16
40
0.56250000000000355
210
-3.1839888300968705e-17
220
4.547207301192027e-17
230
1
100
AcDbArc
50
-55.000000000000192
51
125.00000000000011
0
ARC
5
106
100
AcDbEntity
8
0
100
AcDbCircle
10
-0.116141732283464
20
8.183170652443053
30
-3.496765431890258e-16
40
4.1431102362204815
210
-4.4086755585640627e-17
220
6.2962412113359772e-17
230
1
100
AcDbArc
50
124.99999999999989
51
208.94341567075878
0
ARC
5
107
100
AcDbEntity
8
0
100
AcDbCircle
10
-3.2495268401788877
20
6.4503499954364001
30
-6.9935308637805131e-16
40
0.56249999999959577
210
-4.240133775549128e-17
220
-2.3448734010477289e-17
230
1
100
AcDbArc
50
-151.0565843292415
51
28.943415670758519
0
ARC
5
108
100
AcDbEntity
8
0
100
AcDbCircle
10
-0.116141732283464
20
8.183170652443053
30
-3.496765431890258e-16
40
3.0181102362204797
210
-5.3372274823919339e-17
220
7.6223507905072846e-17
230
1
100
AcDbArc
50
124.99999999999996
51
208.9434156707589
0
ARC
5
109
100
AcDbEntity
8
0
100
AcDbCircle
10
-1.5246219006419544
20
10.194688797420037
30
-3.1542789640357877e-32
40
0.56250000000000333
210
-1.5919944150484214e-17
220
2.2736036505959962e-17
230
1
100
AcDbArc
50
-55.000000000000092
51
125.00000000000027
0
ARC
5
110
100
AcDbEntity
8
0
100
AcDbCircle
10
-0.116141732283464
20
8.183170652443053
30
-3.496765431890258e-16
40
1.8931102362204784
210
1.1067564376011303e-16
220
-1.5806120003090632e-16
230
1
100
AcDbArc
50
124.9999999999999
51
295.4650860914889
0
ARC
5
111
100
AcDbEntity
8
0
100
AcDbCircle
10
0.93967493768199006
20
5.9661292022996752
30
-6.9935308637805121e-16
40
0.56250000000000233
210
-2.3867630935251159e-17
220
5.0118101565783712e-17
230
1
100
AcDbArc
50
-64.534913908511115
51
115.46508609148876
0
ARC
5
112
100
AcDbEntity
8
0
100
AcDbCircle
10
-0.116141732283464
20
8.183170652443053
30
-3.496765431890258e-16
40
3.0181102362204832
210
-2.1831812076961595e-17
220
-3.451829333552714e-17
230
1
100
AcDbArc
50
237.68784253763755
51
295.4650860914889
0
ARC
5
113
100
AcDbEntity
8
0
100
AcDbCircle
10
-2.0300913786795181
20
5.1570235286573416
30
-1.049029629567077e-15
40
0.56250000000128619
210
-5.4744101823318092e-16
220
-8.6555937659493793e-16
230
1
100
AcDbArc
50
57.687842537637707
51
237.68784253763781
0
ARC
5
114
100
AcDbEntity
8
0
100
AcDbCircle
10
-0.116141732283464
20
8.183170652443053
30
-3.496765431890258e-16
40
4.1431102362230545
210
-1.8351947379920593e-16
220
-2.9016276830577345e-16
230
1
100
AcDbArc
50
-122.31215746236241
51
55.00000000000022
0
ARC
5
115
100
AcDbEntity
8
0
100
AcDbCircle
10
1.9376119269699605
20
11.116234847245153
30
-3.4967654318902565e-16
40
0.56250000000128664
210
-7.6267120127569518e-16
220
-1.0892073559015701e-15
230
1
100
AcDbArc
50
55.000000000001741
51
235.00000000000011
0
ARC
5
116
100
AcDbEntity
8
0
100
AcDbCircle
10
-0.116141732283464
20
8.183170652443053
30
-3.496765431890258e-16
40
3.0181102362204819
210
-9.2431475802302613e-17
220
3.7525660542133066e-17
230
1
100
AcDbArc
50
-22.096344299888646
51
54.999999999999957
0
ARC
5
117
100
AcDbEntity
8
0
100
AcDbCircle
10
2.1591103991813112
20
7.2594556690782115
30
-5.3380105545221018e-32
40
0.56250000000000155
210
-9.0009505893113087e-17
220
3.6542380551560212e-17
230
1
100
AcDbArc
50
157.90365570011147
51
337.90365570011119
0
ARC
5
118
100
AcDbEntity
8
0
100
AcDbCircle
10
-0.116141732283464
20
8.183170652443053
30
-3.496765431890258e-16
40
1.8931102362198491
210
-1.4439907920044422e-16
220
5.8623653702794859e-17
230
1
100
AcDbArc
50
-22.096344299888592
51
54.999999999999922
0
ENDSEC
0
SECTION
2
OBJECTS
0
DICTIONARY
5
C
100
AcDbDictionary
3
ACAD_GROUP
350
D
3
ACAD_MLINESTYLE
350
17
0
DICTIONARY
5
D
100
AcDbDictionary
0
DICTIONARY
5
1A
330
C
100
AcDbDictionary
0
DICTIONARY
5
17
100
AcDbDictionary
0
ENDSEC
0
EOF
