0
SECTION
2
HEADER
9
$INSUNITS
70
1
9
$ACADVER
1
AC1014
9
$HANDSEED
5
FFFF
0
ENDSEC
0
SECTION
2
TABLES
0
TABLE
2
VPORT
5
8
100
AcDbSymbolTable
0
ENDTAB
0
TABLE
2
LTYPE
5
5
100
AcDbSymbolTable
0
LTYPE
5
14
100
AcDbSymbolTableRecord
100
AcDbLinetypeTableRecord
2
BYBLOCK
70
0
0
LTYPE
5
15
100
AcDbSymbolTableRecord
100
AcDbLinetypeTableRecord
2
BYLAYER
70
0
0
ENDTAB
0
TABLE
2
LAYER
5
2
100
AcDbSymbolTable
70
2
0
LAYER
5
50
100
AcDbSymbolTableRecord
100
AcDbLayerTableRecord
2
0
70
0
6
CONTINUOUS
0
ENDTAB
0
TABLE
2
STYLE
5
3
100
AcDbSymbolTable
70
1
0
STYLE
5
11
100
AcDbSymbolTableRecord
100
AcDbTextStyleTableRecord
2
STANDARD
70
0
0
ENDTAB
0
TABLE
2
VIEW
5
6
100
AcDbSymbolTable
70
0
0
ENDTAB
0
TABLE
2
UCS
5
7
100
AcDbSymbolTable
70
0
0
ENDTAB
0
TABLE
2
APPID
5
9
100
AcDbSymbolTable
70
2
0
APPID
5
12
100
AcDbSymbolTableRecord
100
AcDbRegAppTableRecord
2
ACAD
70
0
0
ENDTAB
0
TABLE
2
DIMSTYLE
5
A
100
AcDbSymbolTable
70
1
0
ENDTAB
0
TABLE
2
BLOCK_RECORD
5
1
100
AcDbSymbolTable
70
1
0
BLOCK_RECORD
5
1F
100
AcDbSymbolTableRecord
100
AcDbBlockTableRecord
2
*MODEL_SPACE
0
BLOCK_RECORD
5
1B
100
AcDbSymbolTableRecord
100
AcDbBlockTableRecord
2
*PAPER_SPACE
0
ENDTAB
0
ENDSEC
0
SECTION
2
BLOCKS
0
BLOCK
5
20
100
AcDbEntity
100
AcDbBlockBegin
2
*MODEL_SPACE
0
ENDBLK
5
21
100
AcDbEntity
100
AcDbBlockEnd
0
BLOCK
5
1C
100
AcDbEntity
100
AcDbBlockBegin
2
*PAPER_SPACE
0
ENDBLK
5
1D
100
AcDbEntity
100
AcDbBlockEnd
0
ENDSEC
0
SECTION
2
ENTITIES
0
LWPOLYLINE
5
100
100
AcDbEntity
8
0
100
AcDbPolyline
90
48
70
1
43
0.0
10
-3.2055508762671914
20
12.595304163434287
42
0.58453496515363523
10
-2.2870489457904255
20
3.2538164505129914
42
0.99999999999999989
10
-1.7384112957132749
20
4.499576420777224
42
-0.18573318400396449
10
-3.7890420400228662
20
6.5368327984796943
42
-0.99999999999999989
10
-2.9780113318790811
20
6.9003685450749028
42
0.42786348609622704
10
1.2979608072944147
20
5.3838505815506537
42
-0.99999999999999989
10
1.6987060349007028
20
4.5905459041631769
42
-0.12630930622886147
10
-0.25622078880266996
20
4.1606089241496198
42
0.99999999999999989
10
-0.3035943240806831
20
2.8002130542847068
42
0.74669752727897087
10
2.9732674117002706
20
12.595304163434287
42
1.0000000074505806
10
2.837776914924885
20
12.401803680532019
42
-0.74669752727897087
10
-0.29537332948704437
20
3.0362904289900126
42
-0.99999998946328783
10
-0.26444179275544794
20
3.924531549770232
42
0.12630930622886158
10
1.8052163943960575
20
4.3797008071857588
42
1.0000000074505806
10
1.1914504477988641
20
5.5946956785284536
42
-0.42786348609622699
10
-2.7624549974873873
20
6.9969893415127586
42
0.99999999999999989
10
-4.0045983744154183
20
6.4402120020414477
42
0.18573318400398345
10
-1.8336195647074274
20
4.2833924779967436
42
-0.99999999999999989
10
-2.1918406767962755
20
3.4700003932917332
42
-0.58453496515366021
10
-3.0700603871625551
20
12.401803675159941
42
-1.0000000105367122
10
-2.5602773853722618
20
11.673758113609169
42
0.22352357572342266
10
-4.3636325104540097
20
8.524962993057386
42
0.99999999999999989
10
-3.0067979037628567
20
8.415779547991205
42
-0.22352357572342235
10
-1.7795133977014959
20
10.558711580881139
42
-0.99999999999999989
10
-1.269730403582408
20
9.8306660139589308
42
1.4385506391797818
10
1.833458831186771
20
7.6891408641893362
42
-0.99999999999999989
10
2.6950078714208505
20
7.4708238930660782
42
-0.088522229430909913
10
2.2751271317144419
20
6.5424899339374827
42
0.99999999999999989
10
3.3975561430190973
20
5.7723767674656994
42
0.41142786647203478
10
2.3279939208053437
20
11.673758113609168
42
0.99999999999999989
10
1.5472299331345507
20
10.558711580881102
42
-0.11738851681353481
10
2.4391813263806594
20
9.5544197420905288
42
-0.99999999999999989
10
1.6560369054013047
20
9.1341652186206712
42
0.11738851681353452
10
1.0374469390154859
20
9.8306660139589308
42
0.99999999999999989
10
0.90195644223962357
20
9.6371655310559827
42
-0.1173885168135347
10
1.4478922087954458
20
9.0224696642100479
42
0.99999999999999989
10
2.647326022986551
20
9.6661152965011716
42
0.11738851681353464
10
1.6827204299104164
20
10.75221206378405
42
-0.99999999999999989
10
2.1925034240295083
20
11.48025763070626
42
-0.4114278664719529
10
3.2027745305537101
20
5.9060189578308648
42
-0.99999998946328783
10
2.4699087388825722
20
6.4088477358521381
42
0.088522229430838872
10
2.9239910050374851
20
7.4127994489138107
42
0.99999999999999989
10
1.6044756975698724
20
7.7471653083416676
42
-1.4385506391797787
10
-1.1342399068065705
20
9.6371655310560183
42
0.99999999999999989
10
-1.9150038944773342
20
10.75221206378405
42
0.22352357572287551
10
-3.2422572715191724
20
8.4347267835841482
42
-0.99999999999999989
10
-4.1281731426981549
20
8.5060157574794513
42
-0.22352357572287576
10
-2.4247868885964241
20
11.480257630706259
42
0.99999999999999989
0
CIRCLE
5
101
100
AcDbEntity
8
0
100
AcDbCircle
10
-0.11614173228345404
20
8.183170652443053
30
-3.4967654318902486e-16
40
0.56250000000000189
210
-1.0059353856034667e-16
220
2.7755575615628852e-17
230
1
0
LWPOLYLINE
5
102
100
AcDbEntity
8
0
100
AcDbPolyline
90
4
70
1
43
0.0
10
-1.8582677165354402
20
-0.25031298167304311
10
-1.8582677165354398
20
0.12468701832695819
10
1.6259842519685002
20
0.12468701832695507
10
1.6259842519685006
20
-0.25031298167304755
0
LWPOLYLINE
5
103
100
AcDbEntity
8
0
100
AcDbPolyline
90
4
70
1
43
0.0
10
-6.6161417322834764
20
1.1831706524430341
42
0.99999999999999989
10
6.3838582677165485
20
1.1831706524430374
10
6.3838582677165512
20
8.1831706524430494
42
0.99999999999999989
10
-6.6161417322834755
20
8.1831706524430583
0
ARC
5
104
100
AcDbEntity
8
0
100
AcDbCircle
10
-0.11614173228345404
20
8.183170652443053
30
-3.4967654318902486e-16
40
5.268110236220493
210
-4.1606851506798313e-20
220
-1.1947976568722844e-18
230
1
100
AcDbArc
50
-91.994424791398203
51
55.000000000000121
0
ARC
5
105
100
AcDbEntity
8
0
100
AcDbCircle
10
-0.27990755644167564
20
3.4804109892171642
30
-3.4967654318902565e-16
40
0.56249999999961342
210
1.9215492207524878e-32
220
5.5179914446181405e-31
230
1
100
AcDbArc
50
88.005575208602011
51
268.0055752086019
0
ARC
5
106
100
AcDbEntity
8
0
100
AcDbCircle
10
-0.11614173228345404
20
8.183170652443053
30
-3.4967654318902486e-16
40
4.143110236221264
210
-9.1309422454680662e-33
220
-2.6220749719883456e-31
230
1
100
AcDbArc
50
268.00557520860173
51
296.80104724604678
0
ARC
5
107
100
AcDbEntity
8
0
100
AcDbCircle
10
1.4983334210973822
20
4.9871982428572634
30
-4.8527368677473655e-33
40
0.5625000000020699
210
1.1656882595806467e-16
220
-2.3075657175623537e-16
230
1
100
AcDbArc
50
-63.198952753953307
51
116.80104724604662
0
ARC
5
108
100
AcDbEntity
8
0
100
AcDbCircle
10
-0.11614173228345404
20
8.183170652443053
30
-3.4967654318902486e-16
40
3.0181102362204886
210
-7.7075220689806067e-17
220
-3.4548134387646068e-17
230
1
100
AcDbArc
50
204.14379229703897
51
296.80104724604683
0
ARC
5
109
100
AcDbEntity
8
0
100
AcDbCircle
10
-3.3835266859509736
20
6.7186006717772981
30
-6.9935308637805131e-16
40
0.56249999999905664
210
-1.5371726495399769e-16
220
-6.8902102125728394e-17
230
1
100
AcDbArc
50
24.143792297038864
51
204.14379229703877
0
ARC
5
110
100
AcDbEntity
8
0
100
AcDbCircle
10
-0.11614173228345404
20
8.183170652443053
30
-3.4967654318902486e-16
40
4.143110236218603
210
-1.0065181101873997e-16
220
-4.5116086108012743e-17
230
1
100
AcDbArc
50
204.14379229703891
51
246.23111630650621
0
ARC
5
111
100
AcDbEntity
8
0
100
AcDbCircle
10
-2.0127301207518533
20
3.876696435644237
30
3.4967654318902565e-16
40
0.56249999999967426
210
-5.0267812731867131e-16
220
-1.1414023241971441e-15
230
1
100
AcDbArc
50
-113.76888369352294
51
66.231116306541978
0
ARC
5
112
100
AcDbEntity
8
0
100
AcDbCircle
10
-0.11614173228345404
20
8.183170652443053
30
-3.4967654318902486e-16
40
5.2681102362204912
210
-3.2584256218695653e-17
220
4.6535140569904531e-17
230
1
100
AcDbArc
50
125.00000000000001
51
246.23111630650686
0
ARC
5
113
100
AcDbEntity
8
0
100
AcDbCircle
10
-2.8151688824318053
20
12.037780897070274
30
-1.049029629567077e-15
40
0.56250000000000111
210
1.583454162006385e-31
220
-2.2614069052369446e-31
230
1
100
AcDbArc
50
-55.000000000000249
51
125.00000000000021
0
ARC
5
114
100
AcDbEntity
8
0
100
AcDbCircle
10
-0.11614173228345404
20
8.183170652443053
30
-3.4967654318902486e-16
40
4.1431102362204886
210
-9.6819159560127379e-17
220
1.3827208974024262e-16
230
1
100
AcDbArc
50
125.00000000000001
51
175.39936543003301
0
ARC
5
115
100
AcDbEntity
8
0
100
AcDbCircle
10
-3.6852152071086639
20
8.4703712705317997
30
-3.4967654318902565e-16
40
0.56249999999937017
210
-1.284175146474426e-15
220
1.0333659376954121e-16
230
1
100
AcDbArc
50
175.39936543003316
51
355.39936543003307
0
ARC
5
116
100
AcDbEntity
8
0
100
AcDbCircle
10
-0.11614173228345404
20
8.183170652443053
30
-3.4967654318902486e-16
40
3.0181102362204855
210
-2.451968647278944e-17
220
3.5017741362055787e-17
230
1
100
AcDbArc
50
125.00000000000001
51
175.39936543003301
0
ARC
5
117
100
AcDbEntity
8
0
100
AcDbCircle
10
-1.5246219006419519
20
10.194688797420035
30
-3.4967654318902565e-16
40
0.56250000000000155
210
1.5834541620063861e-31
220
-2.2614069052369419e-31
230
1
100
AcDbArc
50
-55.000000000000249
51
124.99999999999987
0
ARC
5
118
100
AcDbEntity
8
0
100
AcDbCircle
10
-0.11614173228345404
20
8.183170652443053
30
-3.4967654318902486e-16
40
1.8931102362204824
210
-2.8229511913902098e-31
220
4.0315921171141839e-31
230
1
100
AcDbArc
50
125.00000000000016
51
345.78052945558397
0
ARC
5
119
100
AcDbEntity
8
0
100
AcDbCircle
10
2.2642333513036639
20
7.5799823786277436
30
-3.4967654318902565e-16
40
0.56250000000000211
210
-1.0089449404196353e-16
220
2.5566716824698862e-17
230
1
100
AcDbArc
50
-14.219470544415769
51
165.78052945558457
0
ARC
5
120
100
AcDbEntity
8
0
100
AcDbCircle
10
-0.11614173228345404
20
8.183170652443053
30
-3.4967654318902486e-16
40
3.0181102362204753
210
-6.1874813186784674e-17
220
4.2453115366921817e-17
230
1
100
AcDbArc
50
325.54547411296443
51
345.7805294555842
0
ARC
5
121
100
AcDbEntity
8
0
100
AcDbCircle
10
2.8363416373672221
20
6.1574333507024992
30
6.9935308637805131e-16
40
0.56250000000000899
210
-1.2057939433990666e-15
220
8.273109323712479e-16
230
1
100
AcDbArc
50
145.54547411296477
51
325.54547411296488
0
ARC
5
122
100
AcDbEntity
8
0
100
AcDbCircle
10
-0.11614173228345404
20
8.183170652443053
30
-3.4967654318902486e-16
40
4.1431102362204939
210
-4.1376668874147372e-16
220
2.838907152592853e-16
230
1
100
AcDbArc
50
-34.45452588703543
51
55.000000000000085
0
ARC
5
123
100
AcDbEntity
8
0
100
AcDbCircle
10
1.9376119269699601
20
11.116234847245153
30
-3.4967654318902565e-16
40
0.56250000000000477
210
-2.4548243730250167e-16
220
-3.5058525352376338e-16
230
1
100
AcDbArc
50
54.999999999999915
51
235
0
ARC
5
124
100
AcDbEntity
8
0
100
AcDbCircle
10
-0.11614173228345404
20
8.183170652443053
30
-3.4967654318902486e-16
40
3.0181102362204721
210
-7.6725889439783271e-17
220
-4.1172995989672797e-17
230
1
100
AcDbArc
50
28.219099064167636
51
55.000000000000142
0
ARC
5
125
100
AcDbEntity
8
0
100
AcDbCircle
10
2.0476091158909822
20
9.3442924803556
30
3.4967654318902565e-16
40
0.56250000000000233
210
-7.3370133493565969e-17
220
-3.9372214960938241e-17
230
1
100
AcDbArc
50
-151.78090093583253
51
28.219099064167718
0
ARC
5
126
100
AcDbEntity
8
0
100
AcDbCircle
10
-0.11614173228345404
20
8.183170652443053
30
-3.4967654318902486e-16
40
1.8931102362204297
210
-3.0371257903722705e-16
220
-1.6297962643400894e-16
230
1
100
AcDbArc
50
28.219099064167651
51
55.00000000000022
0
ENDSEC
0
SECTION
2
OBJECTS
0
DICTIONARY
5
C
100
AcDbDictionary
3
ACAD_GROUP
350
D
3
ACAD_MLINESTYLE
350
17
0
DICTIONARY
5
D
100
AcDbDictionary
0
DICTIONARY
5
1A
330
C
100
AcDbDictionary
0
DICTIONARY
5
17
100
AcDbDictionary
0
ENDSEC
0
EOF
