0
SECTION
2
HEADER
9
$INSUNITS
70
1
9
$ACADVER
1
AC1014
9
$HANDSEED
5
FFFF
0
ENDSEC
0
SECTION
2
TABLES
0
TABLE
2
VPORT
5
8
100
AcDbSymbolTable
0
ENDTAB
0
TABLE
2
LTYPE
5
5
100
AcDbSymbolTable
0
LTYPE
5
14
100
AcDbSymbolTableRecord
100
AcDbLinetypeTableRecord
2
BYBLOCK
70
0
0
LTYPE
5
15
100
AcDbSymbolTableRecord
100
AcDbLinetypeTableRecord
2
BYLAYER
70
0
0
ENDTAB
0
TABLE
2
LAYER
5
2
100
AcDbSymbolTable
70
2
0
LAYER
5
50
100
AcDbSymbolTableRecord
100
AcDbLayerTableRecord
2
0
70
0
6
CONTINUOUS
0
ENDTAB
0
TABLE
2
STYLE
5
3
100
AcDbSymbolTable
70
1
0
STYLE
5
11
100
AcDbSymbolTableRecord
100
AcDbTextStyleTableRecord
2
STANDARD
70
0
0
ENDTAB
0
TABLE
2
VIEW
5
6
100
AcDbSymbolTable
70
0
0
ENDTAB
0
TABLE
2
UCS
5
7
100
AcDbSymbolTable
70
0
0
ENDTAB
0
TABLE
2
APPID
5
9
100
AcDbSymbolTable
70
2
0
APPID
5
12
100
AcDbSymbolTableRecord
100
AcDbRegAppTableRecord
2
ACAD
70
0
0
ENDTAB
0
TABLE
2
DIMSTYLE
5
A
100
AcDbSymbolTable
70
1
0
ENDTAB
0
TABLE
2
BLOCK_RECORD
5
1
100
AcDbSymbolTable
70
1
0
BLOCK_RECORD
5
1F
100
AcDbSymbolTableRecord
100
AcDbBlockTableRecord
2
*MODEL_SPACE
0
BLOCK_RECORD
5
1B
100
AcDbSymbolTableRecord
100
AcDbBlockTableRecord
2
*PAPER_SPACE
0
ENDTAB
0
ENDSEC
0
SECTION
2
BLOCKS
0
BLOCK
5
20
100
AcDbEntity
100
AcDbBlockBegin
2
*MODEL_SPACE
0
ENDBLK
5
21
100
AcDbEntity
100
AcDbBlockEnd
0
BLOCK
5
1C
100
AcDbEntity
100
AcDbBlockBegin
2
*PAPER_SPACE
0
ENDBLK
5
1D
100
AcDbEntity
100
AcDbBlockEnd
0
ENDSEC
0
SECTION
2
ENTITIES
0
ARC
5
100
100
AcDbEntity
8
0
100
AcDbCircle
10
-0.11614173228345806
20
8.1831706524430725
30
4.0762989689077871e-31
40
5.3862204724409617
210
-9.040210007597749e-17
220
-2.5468818520215662e-18
230
1
100
AcDbArc
50
-235.00000000000003
51
54.999999999999986
0
ARC
5
101
100
AcDbEntity
8
0
100
AcDbCircle
10
-2.815168882431804
20
12.037780897070293
30
-6.9935308637805131e-16
40
0.68061023622047356
210
-3.0468831839570263e-16
220
-1.794617559371042e-16
230
1
100
AcDbArc
50
-55.000000000000043
51
125.00000000000011
0
ARC
5
102
100
AcDbEntity
8
0
100
AcDbCircle
10
-0.11614173228345806
20
8.1831706524430725
30
4.0762989689077871e-31
40
4.0250000000000119
210
-1.4769100991182434e-16
220
1.0296853709840416e-16
230
1
100
AcDbArc
50
-235.00000000000011
51
54.999999999999915
0
ARC
5
103
100
AcDbEntity
8
0
100
AcDbCircle
10
1.9376119269699614
20
11.116234847245167
30
0
40
0.44438976377952749
210
-4.6280297777627852e-16
220
-2.2620709297234719e-16
230
1
100
AcDbArc
50
54.999999999999289
51
235.00000000000011
0
ARC
5
104
100
AcDbEntity
8
0
100
AcDbCircle
10
-0.11614173228345806
20
8.1831706524430725
30
4.0762989689077871e-31
40
3.1362204724409528
210
-7.7537970790174637e-17
220
6.4606784464018984e-18
230
1
100
AcDbArc
50
-235.00000000000003
51
54.999999999999979
0
ARC
5
105
100
AcDbEntity
8
0
100
AcDbCircle
10
-0.11614173228345806
20
8.1831706524430725
30
4.0762989689077871e-31
40
1.775000000000005
210
-1.7973650893610193e-16
220
9.6803471834719545e-18
230
1
100
AcDbArc
50
-235
51
55.000000000000043
0
ARC
5
106
100
AcDbEntity
8
0
100
AcDbCircle
10
0.96970169062756717
20
9.7339157725074905
30
3.4967654318902565e-16
40
0.11811023622047107
210
-1.064705920026463e-16
220
-2.7098393106116974e-17
230
1
100
AcDbArc
50
54.999999999999694
51
235.00000000000017
0
ARC
5
107
100
AcDbEntity
8
0
100
AcDbCircle
10
-0.11614173228345806
20
8.1831706524430725
30
4.0762989689077871e-31
40
2.0112204724409506
210
-1.1206378458254492e-16
220
2.5714103271041632e-17
230
1
100
AcDbArc
50
-234.99999999999991
51
55.000000000000014
0
ARC
5
108
100
AcDbEntity
8
0
100
AcDbCircle
10
-1.5246219006419524
20
10.194688797420051
30
-6.9935308637805131e-16
40
0.68061023622047279
210
-8.9917034075618502e-16
220
6.9274939886717481e-16
230
1
100
AcDbArc
50
-54.999999999999886
51
125.00000000000007
0
ARC
5
109
100
AcDbEntity
8
0
100
AcDbCircle
10
-0.11614173228345806
20
8.1831706524430725
30
4.0762989689077871e-31
40
2.9000000000000088
210
-1.4093179558165419e-16
220
-3.0914902823690237e-17
230
1
100
AcDbArc
50
-235.00000000000003
51
55.000000000000064
0
ARC
5
110
100
AcDbEntity
8
0
100
AcDbCircle
10
1.9376119269699614
20
11.116234847245167
30
0
40
0.68061023622047279
210
-1.132507037825671e-16
220
1.1532393680094804e-17
230
1
100
AcDbArc
50
54.999999999999886
51
235.00000000000014
0
ARC
5
111
100
AcDbEntity
8
0
100
AcDbCircle
10
-0.11614173228345806
20
8.1831706524430725
30
4.0762989689077871e-31
40
4.2612204724409573
210
-1.070902538275858e-16
220
-2.6432813037869504e-18
230
1
100
AcDbArc
50
-235.00000000000003
51
54.999999999999979
0
ARC
5
112
100
AcDbEntity
8
0
100
AcDbCircle
10
-2.815168882431804
20
12.037780897070293
30
-6.9935308637805131e-16
40
0.44438976377952921
210
-7.2613054050793011e-16
220
7.1905412198546978e-16
230
1
100
AcDbArc
50
-55.000000000000604
51
124.99999999999982
0
ARC
5
113
100
AcDbEntity
8
0
100
AcDbCircle
10
-0.11614173228345806
20
8.1831706524430725
30
4.0762989689077871e-31
40
5.1500000000000137
210
-1.3918177921124527e-16
220
7.4168579896355007e-17
230
1
100
AcDbArc
50
-235.00000000000011
51
54.999999999999901
0
ARC
5
114
100
AcDbEntity
8
0
100
AcDbCircle
10
2.9055221633123547
20
12.498553921982843
30
-4.2461447592789448e-32
40
0.11811023622047584
210
-3.9294963360504294e-15
220
-1.884111509759346e-15
230
1
100
AcDbArc
50
54.999999999999851
51
235.00000000000401
0
CIRCLE
5
115
100
AcDbEntity
8
0
100
AcDbCircle
10
-0.11614173228345806
20
8.1831706524430725
30
4.0762989689077871e-31
40
0.56250000000000189
210
-1.0059353856034667e-16
220
2.7755575615628852e-17
230
1
0
LWPOLYLINE
5
116
100
AcDbEntity
8
0
100
AcDbPolyline
90
4
70
1
43
0.0
10
-1.8582677165354402
20
-0.25031298167304311
10
-1.8582677165354398
20
0.12468701832695819
10
1.6259842519685006
20
0.12468701832695522
10
1.6259842519685006
20
-0.25031298167304761
0
LWPOLYLINE
5
117
100
AcDbEntity
8
0
100
AcDbPolyline
90
4
70
1
43
0.0
10
-6.6161417322834764
20
1.1831706524430341
42
0.99999999999999989
10
6.3838582677165485
20
1.1831706524430374
10
6.3838582677165512
20
8.1831706524430494
42
0.99999999999999989
10
-6.6161417322834755
20
8.1831706524430583
0
ARC
5
118
100
AcDbEntity
8
0
100
AcDbCircle
10
-0.11614173228345806
20
8.1831706524430725
30
4.0762989689077871e-31
40
1.893110236220483
210
9.7844894850952824e-18
220
-1.6934313639791159e-17
230
1
100
AcDbArc
50
-235
51
55.00000000000005
0
ARC
5
119
100
AcDbEntity
8
0
100
AcDbCircle
10
-1.5246219006419524
20
10.194688797420051
30
2.6690052772610509e-32
40
0.56249999999999645
210
-3.292999242612796e-17
220
5.6992924474014252e-17
230
1
100
AcDbArc
50
-54.999999999999886
51
125.00000000000011
0
ARC
5
120
100
AcDbEntity
8
0
100
AcDbCircle
10
-0.11614173228345806
20
8.1831706524430725
30
4.0762989689077871e-31
40
3.0181102362204744
210
-4.6450916050186445e-18
220
8.0183326030468942e-18
230
1
100
AcDbArc
50
-234.99999999999991
51
54.999999999999993
0
ARC
5
121
100
AcDbEntity
8
0
100
AcDbCircle
10
1.9376119269699614
20
11.116234847245167
30
1.049029629567077e-15
40
0.56250000000001199
210
1.0560479777154425e-15
220
1.7650953385092735e-15
230
1
100
AcDbArc
50
54.999999999999922
51
235
0
ARC
5
122
100
AcDbEntity
8
0
100
AcDbCircle
10
-0.11614173228345806
20
8.1831706524430725
30
4.0762989689077871e-31
40
4.1431102362204886
210
8.6819790076475427e-18
220
-1.4861783027860909e-17
230
1
100
AcDbArc
50
-235.00000000000003
51
54.999999999999986
0
ARC
5
123
100
AcDbEntity
8
0
100
AcDbCircle
10
-2.815168882431804
20
12.037780897070293
30
-5.5199881870626282e-32
40
0.56249999999999767
210
-6.3449319383555455e-17
220
1.0981363785716891e-16
230
1
100
AcDbArc
50
-55.000000000000348
51
124.9999999999997
0
ARC
5
124
100
AcDbEntity
8
0
100
AcDbCircle
10
-0.11614173228345806
20
8.1831706524430725
30
4.0762989689077871e-31
40
5.2681102362204815
210
-5.3456204703513334e-18
220
9.1711507933231408e-18
230
1
100
AcDbArc
50
-235.00000000000011
51
54.999999999999986
0
ARC
5
125
100
AcDbEntity
8
0
100
AcDbCircle
10
-1.5246219006419524
20
10.194688797420051
30
-6.9935308637805131e-16
40
0.44438976377952888
210
-7.4933124242599022e-16
220
9.2498481215720406e-16
230
1
100
AcDbArc
50
-54.999999999999943
51
124.99999999999943
0
ENDSEC
0
SECTION
2
OBJECTS
0
DICTIONARY
5
C
100
AcDbDictionary
3
ACAD_GROUP
350
D
3
ACAD_MLINESTYLE
350
17
0
DICTIONARY
5
D
100
AcDbDictionary
0
DICTIONARY
5
1A
330
C
100
AcDbDictionary
0
DICTIONARY
5
17
100
AcDbDictionary
0
ENDSEC
0
EOF
