0
SECTION
2
HEADER
9
$INSUNITS
70
1
9
$ACADVER
1
AC1014
9
$HANDSEED
5
FFFF
0
ENDSEC
0
SECTION
2
TABLES
0
TABLE
2
VPORT
5
8
100
AcDbSymbolTable
0
ENDTAB
0
TABLE
2
LTYPE
5
5
100
AcDbSymbolTable
0
LTYPE
5
14
100
AcDbSymbolTableRecord
100
AcDbLinetypeTableRecord
2
BYBLOCK
70
0
0
LTYPE
5
15
100
AcDbSymbolTableRecord
100
AcDbLinetypeTableRecord
2
BYLAYER
70
0
0
ENDTAB
0
TABLE
2
LAYER
5
2
100
AcDbSymbolTable
70
2
0
LAYER
5
50
100
AcDbSymbolTableRecord
100
AcDbLayerTableRecord
2
0
70
0
6
CONTINUOUS
0
ENDTAB
0
TABLE
2
STYLE
5
3
100
AcDbSymbolTable
70
1
0
STYLE
5
11
100
AcDbSymbolTableRecord
100
AcDbTextStyleTableRecord
2
STANDARD
70
0
0
ENDTAB
0
TABLE
2
VIEW
5
6
100
AcDbSymbolTable
70
0
0
ENDTAB
0
TABLE
2
UCS
5
7
100
AcDbSymbolTable
70
0
0
ENDTAB
0
TABLE
2
APPID
5
9
100
AcDbSymbolTable
70
2
0
APPID
5
12
100
AcDbSymbolTableRecord
100
AcDbRegAppTableRecord
2
ACAD
70
0
0
ENDTAB
0
TABLE
2
DIMSTYLE
5
A
100
AcDbSymbolTable
70
1
0
ENDTAB
0
TABLE
2
BLOCK_RECORD
5
1
100
AcDbSymbolTable
70
1
0
BLOCK_RECORD
5
1F
100
AcDbSymbolTableRecord
100
AcDbBlockTableRecord
2
*MODEL_SPACE
0
BLOCK_RECORD
5
1B
100
AcDbSymbolTableRecord
100
AcDbBlockTableRecord
2
*PAPER_SPACE
0
ENDTAB
0
ENDSEC
0
SECTION
2
BLOCKS
0
BLOCK
5
20
100
AcDbEntity
100
AcDbBlockBegin
2
*MODEL_SPACE
0
ENDBLK
5
21
100
AcDbEntity
100
AcDbBlockEnd
0
BLOCK
5
1C
100
AcDbEntity
100
AcDbBlockBegin
2
*PAPER_SPACE
0
ENDBLK
5
1D
100
AcDbEntity
100
AcDbBlockEnd
0
ENDSEC
0
SECTION
2
ENTITIES
0
LWPOLYLINE
5
100
100
AcDbEntity
8
0
100
AcDbPolyline
90
16
70
1
43
0.0
10
-1.5112171442907867
20
13.389662970444521
42
7.5957541127251558
10
1.2789336797238742
20
13.389662970444521
42
0.99999999999999989
10
1.2167763499945281
20
13.157688657831793
42
-7.5957541127251558
10
-1.4490598145614415
20
13.157688657831782
42
-0.99999999999999989
10
-1.2200457185504516
20
12.302996415869314
42
7.5957541127251558
10
0.98776225398353756
20
12.302996415869307
42
0.99999999999999989
10
0.63443349851385145
20
10.984355548681378
42
-7.5957541127251558
10
-0.86671695205115429
20
10.984355551636751
42
-0.99999998709521587
10
-0.63770286706978152
20
10.129663306718903
42
7.5957541127251558
10
0.4054194025028599
20
10.129663306718898
42
0.99999999999999989
10
0.34326207277351511
20
9.8976889941061721
42
-7.5957541127251424
10
-0.5755455373404349
20
9.8976889941061703
42
0.99999999999999989
10
-0.92887429281011702
20
11.216329861294108
42
7.59575411272513
10
0.69659082824319885
20
11.216329861294104
42
-0.99999999999999989
10
0.92560492425418817
20
12.071022103256581
42
-7.5957541127251558
10
-1.1578883888211051
20
12.071022103256581
42
0.99999999999999989
0
CIRCLE
5
101
100
AcDbEntity
8
0
100
AcDbCircle
10
-0.11614173228345806
20
8.1831706524430725
30
4.0762989689077871e-31
40
0.56250000000000189
210
-1.0059353856034667e-16
220
2.7755575615628852e-17
230
1
0
LWPOLYLINE
5
102
100
AcDbEntity
8
0
100
AcDbPolyline
90
4
70
1
43
0.0
10
-1.8582677165354402
20
-0.50031298167304639
10
-1.8582677165354398
20
-0.12531298167304494
10
1.6259842519662826
20
-0.12531298167304661
10
1.6259842519662837
20
-0.50031298167304805
0
LWPOLYLINE
5
103
100
AcDbEntity
8
0
100
AcDbPolyline
90
4
70
1
43
0.0
10
-6.6161417322834764
20
1.1831706524430341
42
0.99999999999999989
10
6.3838582677165485
20
1.1831706524430374
10
6.3838582677165512
20
8.1831706524430494
42
0.99999999999999989
10
-6.6161417322834755
20
8.1831706524430583
0
ARC
5
104
100
AcDbEntity
8
0
100
AcDbCircle
10
-0.11614173228345806
20
8.1831706524430725
30
4.0762989689077871e-31
40
1.8931102362204746
210
5.0987576903061566e-17
220
-1.9028822755705023e-16
230
1
100
AcDbArc
50
-254.99999999999994
51
75.000000000000085
0
ARC
5
105
100
AcDbEntity
8
0
100
AcDbCircle
10
-0.75220991507527735
20
10.557009427700137
30
3.496765431890255e-16
40
0.56446850393701031
210
-1.0668717050335669e-17
220
3.9816194083428831e-17
230
1
100
AcDbArc
50
-74.999999999999915
51
105.00000000000007
0
ARC
5
106
100
AcDbEntity
8
0
100
AcDbCircle
10
-0.11614173228345806
20
8.1831706524430725
30
4.0762989689077871e-31
40
3.022047244094495
210
2.9947562593466952e-17
220
-1.1176582516166723e-16
230
1
100
AcDbArc
50
-254.99999999999994
51
74.999999999999943
0
ARC
5
107
100
AcDbEntity
8
0
100
AcDbCircle
10
0.81109787624869423
20
11.643675982275344
30
3.4967654318902565e-16
40
0.56053149606299468
210
1.3045234804627772e-16
220
4.8685479087536911e-16
230
1
100
AcDbArc
50
75.000000000000071
51
255.00000000000043
0
ARC
5
108
100
AcDbEntity
8
0
100
AcDbCircle
10
-0.11614173228345806
20
8.1831706524430725
30
4.0762989689077871e-31
40
4.1431102362204806
210
-4.4970409442451558e-17
220
1.6783185287640458e-16
230
1
100
AcDbArc
50
-255
51
75.000000000000014
0
ARC
5
109
100
AcDbEntity
8
0
100
AcDbCircle
10
-1.3345527665559465
20
12.730342536850548
30
-4.8527368677473655e-32
40
0.56446850393701009
210
3.3007574805066303e-16
220
-1.2318594620713785e-15
230
1
100
AcDbArc
50
-75.000000000000014
51
105.00000000000006
0
ARC
5
110
100
AcDbEntity
8
0
100
AcDbCircle
10
-0.11614173228345806
20
8.1831706524430725
30
4.0762989689077871e-31
40
5.2720472440945008
210
2.8392287879022032e-17
220
-1.0596146090763227e-16
230
1
100
AcDbArc
50
-255
51
74.999999999999957
0
ENDSEC
0
SECTION
2
OBJECTS
0
DICTIONARY
5
C
100
AcDbDictionary
3
ACAD_GROUP
350
D
3
ACAD_MLINESTYLE
350
17
0
DICTIONARY
5
D
100
AcDbDictionary
0
DICTIONARY
5
1A
330
C
100
AcDbDictionary
0
DICTIONARY
5
17
100
AcDbDictionary
0
ENDSEC
0
EOF
