<?xml version="1.0" encoding="UTF-8" standalone="no"?>
<!-- Created with Inkscape (http://www.inkscape.org/) -->

<svg
   width="8.2677164in"
   height="11.692913in"
   viewBox="0 0 210 297"
   version="1.1"
   id="svg5"
   inkscape:version="1.1.2 (b8e25be833, 2022-02-05)"
   sodipodi:docname="LabyrinthLoading_cut.svg"
   xmlns:inkscape="http://www.inkscape.org/namespaces/inkscape"
   xmlns:sodipodi="http://sodipodi.sourceforge.net/DTD/sodipodi-0.dtd"
   xmlns="http://www.w3.org/2000/svg"
   xmlns:svg="http://www.w3.org/2000/svg">
  <sodipodi:namedview
     id="namedview7"
     pagecolor="#ffffff"
     bordercolor="#666666"
     borderopacity="1.0"
     inkscape:pageshadow="2"
     inkscape:pageopacity="0.0"
     inkscape:pagecheckerboard="0"
     inkscape:document-units="in"
     showgrid="false"
     units="in"
     inkscape:object-paths="false"
     inkscape:snap-object-midpoints="false"
     inkscape:snap-global="true"
     inkscape:zoom="0.5"
     inkscape:cx="1089"
     inkscape:cy="1024"
     inkscape:window-width="1920"
     inkscape:window-height="1057"
     inkscape:window-x="-8"
     inkscape:window-y="-8"
     inkscape:window-maximized="1"
     inkscape:current-layer="layer1"
     inkscape:lockguides="true" />
  <defs
     id="defs2">
    <inkscape:path-effect
       effect="bspline"
       id="path-effect2656"
       is_visible="true"
       lpeversion="1"
       weight="33.333333"
       steps="2"
       helper_size="0"
       apply_no_weight="true"
       apply_with_weight="true"
       only_selected="false" />
    <inkscape:path-effect
       effect="bspline"
       id="path-effect1188"
       is_visible="true"
       lpeversion="1"
       weight="33.333333"
       steps="2"
       helper_size="0"
       apply_no_weight="true"
       apply_with_weight="true"
       only_selected="false" />
    <inkscape:path-effect
       effect="bspline"
       id="path-effect1102"
       is_visible="true"
       lpeversion="1"
       weight="33.333333"
       steps="2"
       helper_size="0"
       apply_no_weight="true"
       apply_with_weight="true"
       only_selected="false" />
  </defs>
  <g
     inkscape:label="Layer 1"
     inkscape:groupmode="layer"
     id="layer1">
    <g
       id="g20978"
       transform="rotate(15,535.60364,-1355.2384)" />
    <g
       id="g20984"
       transform="rotate(30,327.44275,-451.41989)" />
    <g
       id="g20990"
       transform="rotate(45,256.44294,-143.14424)" />
    <g
       id="g20996"
       transform="rotate(60,219.69074,16.430994)" />
    <g
       id="g21002"
       transform="rotate(75,196.58734,116.74417)" />
    <g
       id="g21008"
       transform="rotate(90,180.25076,187.67631)" />
    <g
       id="g21014"
       transform="rotate(105,167.71527,242.10445)" />
    <g
       id="g21020"
       transform="rotate(120,157.48009,286.54482)" />
    <g
       id="g21026"
       transform="rotate(135,148.69093,324.70665)" />
    <g
       id="g21032"
       transform="rotate(150,140.81079,358.92161)" />
    <g
       id="g21038"
       transform="rotate(165,133.46767,390.80488)" />
    <circle
       style="opacity:1;fill:#008000;stroke:#000000;stroke-width:0.0999998;stroke-linecap:round;stroke-linejoin:round"
       id="circle36680"
       cx="443.65378"
       cy="146.34343"
       r="15.825" />
    <circle
       style="opacity:1;fill:#008000;fill-opacity:1;stroke:none;stroke-width:0.0999998;stroke-linecap:round;stroke-linejoin:round"
       id="circle36692"
       cx="131.30933"
       cy="132.97089"
       r="15.825" />
    <path
       id="path36714"
       style="fill:none;stroke:#000000;stroke-width:0.1;stroke-linecap:round;stroke-linejoin:round;stroke-miterlimit:4;stroke-dasharray:none"
       d="m 188.45932,231.95764 c 44.80198,-25.8664 66.64481,-78.5997 53.25533,-128.5698 -13.38944,-49.970099 -58.67249,-84.716999 -110.40533,-84.716999 -51.732831,0 -97.015891,34.7469 -110.405321,84.716999 -13.3894296,49.9701 8.45339,102.7033 53.25532,128.5697 3.03714,1.7535 6.92073,0.7129 8.67426,-2.3242 1.75353,-3.0372 0.71292,-6.9208 -2.32426,-8.6743 -39.82395,-22.9924 -59.23979,-69.8664 -47.33806,-114.2842 11.90172,-44.417799 52.15332,-75.303999 98.138061,-75.303999 45.98474,0 86.23635,30.8861 98.13807,75.303999 11.90173,44.4178 -7.51412,91.2918 -47.33807,114.2842 -3.03714,1.7535 -6.92073,0.7129 -8.67426,-2.3242 -1.75353,-3.0372 -0.71292,-6.9208 2.32426,-8.6743 v 0 c 34.84597,-20.1183 51.83483,-61.1331 41.42081,-99.9987 -10.41401,-38.865599 -45.63416,-65.890999 -85.87081,-65.890999 -40.236647,0 -75.456791,27.0254 -85.870801,65.890999 -10.41402,38.8656 6.57483,79.8804 41.4208,99.9987 3.037184,1.7535 6.920784,0.7129 8.674274,-2.3243 1.75353,-3.0372 0.71292,-6.9208 -2.32426,-8.6743 -29.867994,-17.2442 -44.429874,-52.3997 -35.503554,-85.7131 8.92629,-33.313399 39.114994,-56.477999 73.603541,-56.477999 34.48856,0 64.67726,23.1646 73.60355,56.477999 8.92632,33.3134 -5.63556,68.4689 -35.50354,85.7131 -3.03713,1.7535 -6.92072,0.7129 -8.67425,-2.3242 -1.75353,-3.0372 -0.71292,-6.9208 2.32425,-8.6742 24.88999,-14.3702 37.0249,-43.6665 29.58628,-71.4277 -7.43858,-27.761199 -32.59583,-47.064999 -61.33629,-47.064999 -28.74046,0 -53.897711,19.3038 -61.336291,47.064999 -7.43862,27.7612 4.69629,57.0575 29.586304,71.4277 3.037177,1.7534 6.920777,0.7128 8.674267,-2.3244 1.75346,-3.0371 0.71286,-6.9207 -2.32427,-8.6742 -19.911991,-11.4962 -29.619901,-34.9332 -23.669041,-57.1421 5.95086,-22.208899 26.076661,-37.651999 49.069031,-37.651999 22.99237,0 43.11818,15.4431 49.06904,37.651999 5.95086,22.2089 -3.75706,45.6459 -23.66904,57.1421 -3.03716,1.7535 -6.92076,0.7129 -8.67425,-2.3243 -1.75353,-3.0372 -0.71292,-6.9208 2.32425,-8.6742 14.934,-8.6221 22.21494,-26.1999 17.75178,-42.8566 -4.46314,-16.6567 -19.5575,-28.238999 -36.80178,-28.238999 -17.24428,0 -32.338627,11.582299 -36.801767,28.238999 -4.46316,16.6567 2.81778,34.2345 17.751767,42.8566 3.03714,1.7534 6.92074,0.7128 8.67427,-2.3243 1.75353,-3.0372 0.71291,-6.9208 -2.32427,-8.6742 -9.95601,-5.7481 -14.80997,-17.4666 -11.83451,-28.5711 2.97543,-11.1045 13.03833,-18.826 24.53451,-18.826 11.49619,0 21.55909,7.7215 24.53452,18.826 2.97546,11.1045 -1.87851,22.823 -11.83452,28.5711"
       sodipodi:nodetypes="cssscscssscsccssscscssscscssscscssscscssscscsssc" />
    <path
       id="path36722"
       style="opacity:1;fill:none;stroke:#000000;stroke-width:0.1;stroke-linecap:round;stroke-linejoin:round;stroke-miterlimit:4;stroke-dasharray:none"
       d="m 424.60378,179.33904 c -14.934,-8.6221 -22.21494,-26.1999 -17.75178,-42.8566 4.46314,-16.6567 19.5575,-28.239 36.80178,-28.239 17.24428,0 32.33863,11.5823 36.80177,28.239 4.46316,16.6567 -2.81778,34.2345 -17.92797,42.9686 -6.41902,3.5833 -8.55798,11.2714 -4.95368,17.2838 3.60431,6.0125 11.58702,8.0725 17.82987,4.6012 24.88996,-14.3702 37.02487,-43.6665 29.5863,-71.4276 -7.43858,-27.7612 -32.59583,-47.064999 -61.33629,-47.064999 -28.74046,0 -53.89771,19.303799 -61.33629,47.064999 -7.43857,27.7611 4.69633,57.0574 29.58629,71.4276 6.24284,3.4714 8.3818,11.1595 4.7775,17.1719 -3.60431,6.0125 -11.58702,8.0725 -17.65369,4.7132 -34.66978,-20.0063 -51.65864,-61.0211 -41.24462,-99.8867 10.41401,-38.865599 45.63416,-65.890999 85.87081,-65.890999 40.23665,0 75.45679,27.0254 85.8708,65.890999 10.41402,38.8656 -6.57484,79.8804 -41.59701,100.1107 -6.41904,3.5833 -8.558,11.2714 -4.9537,17.2838 3.60431,6.0125 11.58701,8.0725 17.82988,4.6012 44.80196,-25.8664 66.64478,-78.5996 53.25535,-128.5697 -13.38943,-49.970099 -58.67249,-84.716999 -110.40532,-84.716999 -51.73284,0 -97.01589,34.7469 -110.40533,84.716999 -13.38943,49.9701 8.45339,102.7033 53.25532,128.5697"
       sodipodi:nodetypes="cssscscssscscssscscsssc" />
    <circle
       style="opacity:1;fill:#008000;stroke:#000000;stroke-width:0.0999998;stroke-linecap:round;stroke-linejoin:round"
       id="circle1168"
       cx="443.65378"
       cy="501.94342"
       r="15.825" />
    <circle
       style="opacity:1;fill:#008000;fill-opacity:1;stroke:none;stroke-width:0.0999998;stroke-linecap:round;stroke-linejoin:round"
       id="circle1170"
       cx="131.30933"
       cy="488.57089"
       r="15.825" />
    <path
       style="color:#000000;fill:none;stroke-linecap:round;stroke-linejoin:round;stroke:#000000;stroke-width:0.1;stroke-miterlimit:4;stroke-dasharray:none"
       d="m 131.30859,371.27148 c -53.076095,0 -99.565638,35.67186 -113.302731,86.93946 -13.7370918,51.26759 8.689063,105.40728 54.654297,131.94531 4.441243,2.56416 10.207281,1.01735 12.771485,-3.42383 2.564178,-4.44128 1.019407,-10.20733 -3.421875,-12.77148 C 43.349204,551.64022 24.514319,506.17099 36.068359,463.05078 47.62239,419.93057 86.667221,389.9707 131.30859,389.9707 c 44.64138,0 83.68621,29.95977 95.24024,73.08008 11.55404,43.12021 -7.27889,88.58944 -45.93946,110.91016 -1.63303,0.94283 -3.63331,0.40645 -4.57617,-1.22657 -0.94288,-1.63311 -0.40651,-3.63332 1.22657,-4.57617 36.00928,-20.78994 53.58004,-63.20993 42.81835,-103.37304 -10.76167,-40.16311 -47.1896,-68.11524 -88.76953,-68.11524 -41.579924,0 -78.005898,27.95213 -88.767574,68.11524 -10.761688,40.16311 6.809071,82.5831 42.818359,103.37304 4.44127,2.56414 10.207348,1.01944 12.771484,-3.42187 2.564181,-4.44128 1.019408,-10.20929 -3.421875,-12.77344 C 66.004376,535.39037 52.024882,501.64082 60.603516,469.625 c 8.578604,-32.01582 37.559885,-54.25391 70.705074,-54.25391 33.14521,0 62.12843,22.23809 70.70703,54.25391 8.57864,32.01582 -5.40087,65.76537 -34.10546,82.33789 a 3.0003,3.0003 0 0 0 0,0.002 c -1.63302,0.94283 -3.63332,0.40645 -4.57618,-1.22656 -0.94287,-1.63311 -0.40837,-3.63342 1.22461,-4.57617 26.05332,-15.04185 38.77067,-45.74401 30.98438,-74.80274 -7.78625,-29.05871 -34.15063,-49.28906 -64.23438,-49.28906 -30.08374,0 -56.446169,20.23035 -64.232418,49.28906 -7.786291,29.05873 4.929078,59.76089 30.982422,74.80274 4.441276,2.564 10.209296,1.01748 12.773436,-3.42383 2.56413,-4.44122 1.01936,-10.20732 -3.42187,-12.77148 -18.748626,-10.82453 -27.874665,-32.85625 -22.271488,-53.76758 5.603177,-20.91133 24.520898,-35.42774 46.169918,-35.42774 21.64903,0 40.5687,14.51641 46.17188,35.42774 5.60318,20.91133 -3.52287,42.94305 -22.27149,53.76758 -1.63305,0.94284 -3.63333,0.40652 -4.57617,-1.22657 -0.94288,-1.63311 -0.40642,-3.63342 1.22656,-4.57617 16.09735,-9.29375 23.96123,-28.27623 19.1504,-46.23047 -4.81082,-17.95423 -21.11359,-30.46289 -39.70118,-30.46289 -18.58758,0 -34.888403,12.50866 -39.699215,30.46289 -4.810834,17.95424 3.053059,36.93672 19.150395,46.23047 4.44125,2.56402 10.20727,1.01931 12.77148,-3.42187 2.56418,-4.44129 1.01948,-10.20744 -3.42187,-12.77149 -8.79266,-5.07643 -13.06528,-15.39032 -10.4375,-25.19726 2.62775,-9.80694 11.48386,-16.60352 21.63671,-16.60352 10.15287,0 19.00897,6.79658 21.63672,16.60352 2.62778,9.80694 -1.64289,20.12083 -10.43554,25.19726 a 3,3 0 0 0 -1.09766,4.09766 3,3 0 0 0 4.09766,1.09766 c 11.11934,-6.41976 16.55555,-19.54328 13.23242,-31.94532 -3.3231,-12.40203 -14.5941,-21.05078 -27.4336,-21.05078 -12.83948,0 -24.10853,8.64875 -27.43164,21.05078 -3.32313,12.40204 2.11308,25.52556 13.23243,31.94532 1.63299,0.94275 2.16943,2.94306 1.22656,4.57617 -0.94285,1.63301 -2.94315,2.16934 -4.57617,1.22656 -13.770617,-7.95043 -20.468997,-24.12329 -16.35352,-39.48242 4.11546,-15.35914 18.0014,-26.01563 33.90234,-26.01563 15.90095,0 29.78884,10.65649 33.9043,26.01563 4.11548,15.35913 -2.58289,31.53199 -16.35352,39.48242 -4.44134,2.56405 -5.98605,8.3302 -3.42187,12.77148 2.56414,4.44132 8.33023,5.98603 12.77148,3.42188 21.07531,-12.16785 31.36494,-37.0092 25.06641,-60.51563 -6.29853,-23.50642 -27.63113,-39.875 -51.9668,-39.875 -24.33567,0 -45.668262,16.36858 -51.966793,39.875 -6.298531,23.50643 3.99304,48.34778 25.068363,60.51563 1.63301,0.94283 2.1674,2.9432 1.22461,4.57617 -0.94284,1.63308 -2.9431,2.16936 -4.57618,1.22656 -23.72663,-13.69852 -35.278431,-41.58911 -28.187496,-68.05273 7.090896,-26.46363 31.040386,-44.8418 58.437496,-44.8418 27.39712,0 51.34856,18.37817 58.43946,44.8418 7.09093,26.46362 -4.46285,54.35421 -28.18946,68.05273 -4.44134,2.56405 -5.98605,8.33216 -3.42187,12.77344 2.5642,4.44118 8.3322,5.98604 12.77344,3.42188 31.0313,-17.91585 46.17438,-54.47698 36.90039,-89.08789 -9.27396,-34.61092 -40.67011,-58.70118 -76.50196,-58.70118 -35.831829,0 -67.226039,24.09026 -76.499996,58.70118 -9.273989,34.61091 5.869071,71.17204 36.90039,89.08789 1.633072,0.94284 2.169441,2.94306 1.226563,4.57617 -0.94284,1.63308 -2.94308,2.16942 -4.576172,1.22656 -33.682582,-19.44662 -50.089769,-59.05699 -40.023438,-96.625 10.066323,-37.56801 44.079371,-63.66797 82.972653,-63.66797 38.89329,0 72.90829,26.09996 82.97461,63.66797 10.06633,37.56801 -6.34085,77.17838 -40.02343,96.625 -4.44129,2.56415 -5.98606,8.3302 -3.42188,12.77148 2.5642,4.44119 8.33024,5.98604 12.77148,3.42188 40.98726,-23.66404 60.98573,-71.9429 48.73633,-117.6582 -12.24938,-45.71541 -53.70909,-77.52735 -101.03711,-77.52735 -47.328014,0 -88.785767,31.81204 -101.035153,77.52735 -12.249395,45.7153 7.74907,93.99416 48.736329,117.6582 1.633071,0.94285 2.169441,2.94306 1.226562,4.57617 -0.942853,1.63302 -2.943141,2.1694 -4.576172,1.22656 -43.638536,-25.19471 -64.899162,-76.5228 -51.857422,-125.19531 13.04174,-48.6725 57.1164,-82.49219 107.505856,-82.49219 50.38947,0 94.46607,33.81969 107.50782,82.49219 13.04178,48.6725 -8.21884,100.0006 -51.85743,125.19531 a 3,3 0 0 0 -1.09765,4.09961 3,3 0 0 0 4.09765,1.09766 c 45.96529,-26.53803 68.39145,-80.67771 54.6543,-131.94531 -13.7371,-51.2676 -60.22858,-86.93946 -113.30469,-86.93946 z"
       id="path1172" />
    <path
       style="color:#000000;fill:none;stroke-linecap:round;stroke-linejoin:round;stroke:#000000;stroke-width:0.1;stroke-miterlimit:4;stroke-dasharray:none"
       d="m 443.6543,384.61719 c -53.08759,0 -99.58805,35.68225 -113.32813,86.96093 -13.74006,51.27869 8.68889,105.42889 54.66406,131.97266 a 3.025635,3.025635 0 0 0 4.13477,-1.10742 3.025635,3.025635 0 0 0 -1.10938,-4.13281 c -43.62859,-25.18898 -64.88251,-76.50656 -51.84375,-125.16797 13.03878,-48.66142 57.10444,-82.47266 107.48243,-82.47266 50.37798,0 94.44365,33.81124 107.48242,82.47266 13.03495,48.64718 -8.20582,99.94764 -51.8086,125.14453 -4.84028,2.6875 -11.01275,1.06872 -13.75976,-3.51367 -2.74804,-4.58406 -1.22655,-10.261 3.83398,-13.08594 a 3.0259376,3.0259376 0 0 0 0.0391,-0.0215 c 36.18889,-20.90425 53.77051,-63.34143 43.00586,-103.51563 -10.76465,-40.17419 -47.20156,-68.13281 -88.79297,-68.13281 -41.59141,0 -78.02832,27.95861 -88.79297,68.13281 -10.76466,40.1742 6.80465,82.60387 42.65429,103.29102 a 3.0259376,3.0259376 0 0 0 0.0469,0.0273 c 7.50926,4.15811 17.25234,1.63614 21.71289,-5.80469 4.46055,-7.44073 1.74416,-17.12221 -5.90039,-21.37304 l 0.041,0.0254 c -23.71664,-13.69279 -35.2637,-41.57296 -28.17579,-68.02539 7.08793,-26.45254 31.02843,-44.82227 58.41407,-44.82227 27.38563,0 51.32613,18.36973 58.41406,44.82227 7.08459,26.44003 -4.45236,54.30425 -28.14649,68.0039 -4.83941,2.68314 -11.006,1.065 -13.75195,-3.51562 -2.74804,-4.58406 -1.22848,-10.261 3.83203,-13.08594 a 3.0259376,3.0259376 0 0 0 0.0391,-0.0234 c 16.26834,-9.40354 24.15169,-28.40577 19.33789,-46.37109 -4.81379,-17.96532 -21.12555,-30.48047 -39.72461,-30.48047 -18.59906,0 -34.91083,12.51515 -39.72461,30.48047 -4.81381,17.96532 3.05482,36.96027 19.16211,46.25976 a 3.025635,3.025635 0 0 0 4.13281,-1.10742 3.025635,3.025635 0 0 0 -1.10742,-4.13281 c -13.76069,-7.94469 -20.45431,-24.10508 -16.3418,-39.45313 4.11249,-15.34804 17.98944,-25.99609 33.87891,-25.99609 15.88946,0 29.76641,10.64805 33.8789,25.99609 4.11251,15.34805 -2.56752,31.50177 -16.51953,39.56641 l 0.0391,-0.0234 c -7.77751,4.34166 -10.53477,14.04169 -6.07421,21.48242 4.46054,7.44083 14.25189,9.94019 21.89648,5.68946 a 3.0259376,3.0259376 0 0 0 0.041,-0.0234 c 26.06323,-15.04759 38.7853,-45.76232 30.99609,-74.83203 -7.78922,-29.06981 -34.16259,-49.30664 -64.25781,-49.30664 -30.09523,0 -56.47055,20.23683 -64.25977,49.30664 -7.78921,29.06971 4.93286,59.78444 30.99609,74.83203 a 3.0259376,3.0259376 0 0 0 0.043,0.0234 c 4.84113,2.69196 6.40039,8.3886 3.65235,12.97265 -2.7473,4.58289 -8.96423,6.18051 -13.58789,3.62305 -0.001,-7.1e-4 -0.003,-0.001 -0.004,-0.002 -33.45895,-19.3351 -49.84783,-58.91726 -39.78906,-96.45703 10.06335,-37.55693 44.06741,-63.64844 82.94922,-63.64844 38.88181,0 72.88391,26.09151 82.94726,63.64844 10.05942,37.54222 -6.31997,77.12121 -40.14844,96.68554 -7.77753,4.34165 -10.53477,14.04169 -6.07421,21.48243 4.46054,7.44082 14.24992,9.94017 21.89453,5.68945 a 3.0259376,3.0259376 0 0 0 0.043,-0.0234 c 45.9752,-26.54377 68.40608,-80.69397 54.66601,-131.97266 -13.74006,-51.27868 -60.24055,-86.96093 -113.32812,-86.96093 z"
       id="path1174" />
  </g>
</svg>
